<?xml version="1.0" encoding="iso-8859-1"?>
<!-- Uploaded to: SVG Repo, www.svgrepo.com, Generator: SVG Repo Mixer Tools -->
<!DOCTYPE svg PUBLIC "-//W3C//DTD SVG 1.1//EN" "http://www.w3.org/Graphics/SVG/1.1/DTD/svg11.dtd">
<svg fill="#000000" version="1.1" id="Capa_1" xmlns="http://www.w3.org/2000/svg" xmlns:xlink="http://www.w3.org/1999/xlink" 
	 width="800px" height="800px" viewBox="0 0 63.548 63.549"
	 xml:space="preserve">
<g>
	<path d="M62.725,32.308l0.823-0.825l-0.823-0.825c0-0.002,0-0.002-0.005-0.002L50.184,18.12c-0.454-0.456-1.195-0.456-1.652,0
		c-0.453,0.455-0.453,1.195,0,1.651l10.546,10.543H44.121C43.363,18.811,33.79,9.675,22.097,9.675C9.914,9.675,0,19.589,0,31.774
		s9.914,22.099,22.097,22.099c11.889,0,21.59-9.443,22.056-21.223H59.08L48.537,43.197c-0.456,0.457-0.456,1.198,0,1.652
		c0.229,0.23,0.527,0.342,0.826,0.342c0.301,0,0.598-0.114,0.825-0.342L62.725,32.308L62.725,32.308z M22.095,51.537
		c-10.897,0-19.761-8.864-19.761-19.763c0-10.899,8.864-19.764,19.761-19.764c10.406,0,18.937,8.086,19.69,18.304H23.316
		c-0.644,0-1.168,0.524-1.168,1.168c0,0.643,0.524,1.168,1.168,1.168h18.496C41.351,43.141,32.699,51.537,22.095,51.537z"/>
</g>
</svg>